<?xml version="1.0" standalone="no"?>
<!DOCTYPE svg PUBLIC "-//W3C//DTD SVG 20010904//EN"
 "http://www.w3.org/TR/2001/REC-SVG-20010904/DTD/svg10.dtd">
<svg version="1.0" xmlns="http://www.w3.org/2000/svg"
 width="3840.000000pt" height="2160.000000pt" viewBox="0 0 3840.000000 2160.000000"
 preserveAspectRatio="xMidYMid meet">

<g transform="translate(0.000000,2160.000000) scale(0.100000,-0.100000)"
fill="#000000" stroke="none">
<path d="M0 10800 l0 -10800 19200 0 19200 0 0 10800 0 10800 -19200 0 -19200
0 0 -10800z m18968 4400 l-3 -282 -1480 -832 -1480 -833 4 -249 c2 -137 6
-268 10 -290 l6 -42 65 37 c36 21 441 251 900 513 459 262 984 560 1165 664
182 103 435 247 563 320 l232 132 -2 -1375 -3 -1375 -1035 -590 c-569 -325
-1042 -591 -1051 -592 -18 -1 -712 642 -704 653 2 5 416 239 919 522 l916 514
0 298 0 299 -62 -35 c-85 -46 -2048 -1160 -2120 -1202 l-56 -33 -344 320 -343
319 -6 262 c-4 144 -7 537 -8 872 l-1 611 903 512 c496 281 1377 781 1957
1110 l1055 598 3 -272 c1 -150 1 -399 0 -554z m2018 -68 c852 -483 1733 -981
1957 -1107 l409 -230 -6 -415 c-3 -228 -9 -1198 -12 -2155 -4 -957 -9 -1768
-13 -1802 l-6 -62 -1665 960 c-916 528 -1790 1032 -1942 1120 l-278 161 0
2204 c0 1212 1 2204 3 2204 2 0 701 -395 1553 -878z m-1313 -4244 c246 -144
444 -265 440 -269 -7 -7 -487 -289 -1696 -998 l-447 -262 -43 38 c-95 84 -687
638 -687 643 0 13 1956 1119 1970 1114 8 -3 216 -123 463 -266z m2942 -1680
c261 -149 475 -274 475 -277 0 -3 -219 -125 -485 -269 -327 -178 -491 -262
-503 -257 -51 19 -919 541 -912 549 14 15 925 525 938 525 7 1 226 -121 487
-271z m-2890 -2973 c87 -23 167 -70 228 -134 96 -101 137 -211 137 -368 l0
-93 -175 0 -175 0 0 78 c0 144 -43 182 -203 182 -109 0 -152 -13 -185 -55 -21
-27 -22 -36 -22 -282 l0 -255 33 -33 c39 -39 86 -49 206 -44 93 5 125 22 156
87 l20 41 173 1 c198 0 184 10 156 -110 -35 -156 -155 -286 -312 -339 -52 -18
-86 -21 -226 -21 -164 0 -164 0 -198 27 -57 48 -333 306 -343 322 -6 9 -11
137 -13 309 -3 272 -2 299 17 361 49 162 171 281 331 323 87 23 312 24 395 3z
m-1045 -357 l0 -352 -32 30 c-18 17 -97 90 -175 163 l-143 133 0 189 0 189
175 0 175 0 0 -352z m2294 67 c188 -49 344 -203 400 -394 10 -34 16 -92 16
-150 0 -245 -147 -447 -383 -526 -65 -22 -93 -25 -204 -25 -201 0 -316 43
-433 160 -111 111 -164 239 -164 395 0 263 176 484 433 544 63 15 271 12 335
-4z m926 -10 c0 -30 -5 -29 67 -10 66 17 245 20 312 4 119 -27 251 -129 309
-237 57 -107 62 -144 62 -489 l0 -313 -175 0 -175 0 0 298 c0 269 -2 301 -18
331 -30 55 -73 73 -169 69 -72 -3 -86 -7 -124 -33 -80 -57 -84 -71 -87 -387
l-3 -278 -174 0 -175 0 0 535 0 535 175 0 175 0 0 -25z"/>
<path d="M20416 13239 c-6 -910 -5 -1104 6 -1115 17 -16 1948 -1144 1959
-1144 5 0 8 487 7 1117 l-3 1117 -975 563 c-536 309 -978 562 -981 563 -3 0
-9 -496 -13 -1101z"/>
<path d="M20690 5599 c-171 -68 -176 -313 -8 -384 24 -9 68 -15 121 -15 102 0
156 24 202 89 27 38 30 51 30 115 0 64 -4 78 -29 114 -44 63 -110 92 -210 91
-45 0 -92 -5 -106 -10z"/>
</g>
</svg>
