<?xml version="1.0" encoding="UTF-8"?>
<svg id="Layer_1" data-name="Layer 1" xmlns="http://www.w3.org/2000/svg" version="1.1" viewBox="0 0 185 20">
  <defs>
    <style>
      .cls-1 {
        fill: #000;
        stroke-width: 0px;
      }
    </style>
  </defs>
  <path class="cls-1" d="M5.57,6h.47c.23,0,.4,0,.49,0,.79-.02,1.52-.14,2.17-.38.66-.23,1.23-.49,1.72-.78v9.58h-6.12c-.77,0-1.49-.19-2.12-.57-.64-.38-1.14-.89-1.53-1.52-.38-.64-.56-1.35-.56-2.12s.18-1.49.56-2.12c.39-.64.89-1.15,1.53-1.53.63-.38,1.35-.56,2.12-.56h.95c.06,0,.17,0,.32,0ZM7.53,8.85h-3.27c-.38,0-.69.14-.97.4-.26.26-.4.59-.4.97s.13.69.4.97c.27.26.59.4.97.4h3.27v-2.73Z"/>
  <path class="cls-1" d="M18.66,6.28c.69.4,1.24.96,1.65,1.64.4.69.62,1.46.62,2.29v4.21h-2.85v-4.21c0-.47-.17-.87-.5-1.2s-.74-.5-1.21-.5-.87.17-1.2.5-.5.74-.5,1.2v4.21h-2.85v-4.21c0-.84.2-1.6.62-2.29.4-.69.96-1.24,1.64-1.64.69-.41,1.46-.62,2.29-.62s1.61.2,2.29.62ZM16.37,4.57l-1.71-1.71,1.71-1.71,1.71,1.71-1.71,1.71Z"/>
  <path class="cls-1" d="M37.95,13.07c0,1-.25,1.92-.74,2.73-.48.83-1.14,1.49-1.97,1.97-.82.49-1.73.74-2.73.74h-.52c-.93,0-1.79-.21-2.59-.62s-1.46-.98-2-1.69c-.53-.72-.87-1.54-1.03-2.47-.06-.36-.1-.74-.1-1.11v-6.61h4.62c.67,0,1.27.16,1.81.48.55.32.98.76,1.29,1.29.33.55.49,1.14.49,1.81s-.17,1.26-.49,1.8c-.32.55-.75.98-1.29,1.3-.55.32-1.14.48-1.81.48h-1.77c.13.73.47,1.32,1.02,1.78s1.18.69,1.9.69h.47c.71,0,1.33-.25,1.84-.76.5-.51.76-1.13.76-1.84h2.85ZM29.13,10.33h1.77c.21,0,.39-.07.53-.22.14-.14.22-.32.22-.52s-.08-.38-.22-.53c-.14-.14-.32-.22-.53-.22h-1.77v1.49ZM36.5,9.7l1.4,1.4-1.4,1.4-1.4-1.4,1.4-1.4Z"/>
  <path class="cls-1" d="M50.16,6.34l-3.91,3.91,3.91,3.91-1.2.22c-.69.11-1.42.02-2.19-.29-.77-.31-1.49-.78-2.15-1.44l-.4-.39-.39.39c-.66.66-1.37,1.13-2.15,1.44-.76.31-1.49.4-2.19.29l-1.2-.22,3.91-3.91-3.91-3.91,1.2-.21c.69-.11,1.42-.02,2.19.28.77.31,1.49.79,2.15,1.44l.39.39.4-.39c.66-.65,1.37-1.13,2.15-1.44.76-.3,1.49-.4,2.19-.28l1.2.21ZM44.17,14.84l1.4,1.4-1.4,1.4-1.4-1.4,1.4-1.4Z"/>
  <path class="cls-1" d="M60.4,6.01v4.62c0,.7-.17,1.34-.51,1.92-.34.57-.8,1.03-1.38,1.37-.57.34-1.21.52-1.92.52h-3.23v1.43c0,.62-.17,1.2-.5,1.72-.33.53-.78.92-1.35,1.2l-1,.48v-9.86c0-.62.16-1.2.49-1.72.33-.52.78-.92,1.35-1.2l1-.47h7.03ZM57.56,8.86h-4.18v2.73h2.81c.38,0,.7-.14.97-.4s.4-.59.4-.98v-1.35Z"/>
  <path class="cls-1" d="M62.35,2.84c.33-.52.78-.92,1.35-1.2l.99-.47v9.85c0,.62-.16,1.2-.49,1.72-.33.53-.78.92-1.35,1.2l-.99.48V4.57c0-.63.16-1.2.49-1.73Z"/>
  <path class="cls-1" d="M74.67,10.18c.14.24.21.49.21.75v.04c0,.94-.47,1.76-1.41,2.47-.97.66-2.07.99-3.32.99h-.11c-1.27-.04-2.36-.38-3.26-1.04-.91-.71-1.36-1.53-1.36-2.46,0-.25.07-.51.21-.75l2.4-4.17c.18-.32.47-.57.85-.76s.8-.28,1.27-.28.88.1,1.27.28c.38.18.66.44.85.76l2.4,4.17ZM68.75,14.84l1.4,1.4-1.4,1.4-1.4-1.4,1.4-1.4ZM71.26,11.7c.28-.21.43-.46.43-.75,0-.21-.06-.41-.17-.61l-1.37-2.37-1.37,2.37c-.11.19-.17.4-.17.61v.02c0,.27.14.52.43.74.32.22.7.33,1.15.33.42-.02.77-.13,1.06-.33ZM71.54,14.84l1.4,1.4-1.4,1.4-1.4-1.4,1.4-1.4Z"/>
  <path class="cls-1" d="M79.12,4.93c.32-.54.76-.97,1.3-1.29s1.15-.48,1.8-.48h4.5v2.85h-4.54c-.2,0-.36.07-.5.21-.14.13-.2.3-.21.51,0,.19.09.36.23.49.13.13.31.2.5.2h1.01c.48,0,.93.09,1.36.27.42.18.79.43,1.12.76.65.65.99,1.47,1.03,2.45,0,.65-.17,1.25-.48,1.78-.32.54-.75.96-1.28,1.27-.55.33-1.13.48-1.78.48h-8.76l.39-.8c.31-.63.76-1.13,1.34-1.5.58-.36,1.22-.55,1.92-.55h5.16c.18,0,.33-.07.47-.19.12-.13.18-.28.18-.47s-.06-.33-.18-.47c-.13-.13-.29-.19-.47-.19h-1.03c-.49,0-.96-.09-1.39-.27-.42-.18-.8-.44-1.13-.76-.67-.67-1.01-1.49-1.05-2.49,0-.67.17-1.27.49-1.81ZM78.71,14.84l1.4,1.4-1.4,1.4-1.4-1.4,1.4-1.4ZM81.5,14.84l1.4,1.4-1.4,1.4-1.4-1.4,1.4-1.4Z"/>
  <path class="cls-1" d="M89.21,4.57l-1.71-1.71,1.71-1.71,1.71,1.71-1.71,1.71ZM90.14,12.74c-.33.53-.78.92-1.35,1.2l-.99.48v-6.11c0-.62.16-1.2.49-1.72.33-.53.78-.93,1.35-1.2l.99-.48v6.11c0,.62-.16,1.2-.49,1.72Z"/>
  <path class="cls-1" d="M102.83,6.01h3.19l-4.98,7.11c-.29.41-.66.74-1.1.97s-.91.34-1.41.34-.97-.11-1.41-.34-.81-.55-1.1-.97l-4.98-7.11h3.19l3.75,5.37c.16.19.33.28.54.28s.38-.09.54-.28l3.75-5.37ZM98.54,6.01l-1.71-1.71,1.71-1.71,1.71,1.71-1.71,1.71Z"/>
  <path class="cls-1" d="M117.99,13.07c0,1-.25,1.92-.74,2.73-.48.83-1.14,1.49-1.97,1.97-.82.49-1.73.74-2.73.74h-.52c-.93,0-1.79-.21-2.59-.62s-1.46-.98-2-1.69c-.53-.72-.87-1.54-1.03-2.47-.06-.36-.1-.74-.1-1.11v-6.61h4.62c.67,0,1.27.16,1.81.48.55.32.98.76,1.29,1.29.33.55.49,1.14.49,1.81s-.17,1.26-.49,1.8c-.32.55-.75.98-1.29,1.3-.55.32-1.14.48-1.81.48h-1.77c.13.73.47,1.32,1.02,1.78s1.18.69,1.9.69h.47c.71,0,1.33-.25,1.84-.76.5-.51.76-1.13.76-1.84h2.85ZM109.17,10.33h1.77c.21,0,.39-.07.53-.22.14-.14.22-.32.22-.52s-.08-.38-.22-.53c-.14-.14-.32-.22-.53-.22h-1.77v1.49ZM116.54,9.7l1.4,1.4-1.4,1.4-1.4-1.4,1.4-1.4Z"/>
  <path class="cls-1" d="M128.93,11.8h2.85v2.56c0,.76-.18,1.46-.56,2.08-.37.63-.87,1.13-1.5,1.5-.62.38-1.32.56-2.08.56s-1.45-.18-2.07-.55c-.62-.37-1.12-.86-1.49-1.48-.38-.61-.57-1.3-.59-2.06V4.57c0-.63.16-1.2.49-1.73.33-.52.78-.92,1.35-1.2l1-.47v5.2h2.15v2.85h-2.15v5.14c0,.36.12.67.38.92s.56.38.92.38.67-.12.92-.38.38-.56.38-.92v-2.56Z"/>
  <path class="cls-1" d="M141.32,10.18c.14.24.21.49.21.75v.04c0,.94-.47,1.76-1.41,2.47-.97.66-2.07.99-3.32.99h-.11c-1.27-.04-2.36-.38-3.26-1.04-.91-.71-1.36-1.53-1.36-2.46,0-.25.07-.51.21-.75l2.4-4.17c.18-.32.47-.57.85-.76s.8-.28,1.27-.28.88.1,1.27.28c.38.18.66.44.85.76l2.4,4.17ZM135.39,14.84l1.4,1.4-1.4,1.4-1.4-1.4,1.4-1.4ZM137.91,11.7c.28-.21.43-.46.43-.75,0-.21-.06-.41-.17-.61l-1.37-2.37-1.37,2.37c-.11.19-.17.4-.17.61v.02c0,.27.14.52.43.74.32.22.7.33,1.15.33.42-.02.77-.13,1.06-.33ZM138.19,14.84l1.4,1.4-1.4,1.4-1.4-1.4,1.4-1.4Z"/>
  <path class="cls-1" d="M151.97,5.73c0,.78-.23,1.49-.69,2.1.47.62.69,1.32.69,2.11v4.49h-2.85v-4.49c0-.19-.06-.35-.19-.48-.13-.12-.29-.19-.48-.2h-3.29v4.47c0,.62-.17,1.2-.49,1.72-.33.53-.78.93-1.35,1.21l-1,.47V4.56c0-.62.17-1.2.49-1.72.33-.53.78-.93,1.35-1.21l1-.47v5.26h3.29c.18,0,.35-.07.48-.2s.19-.29.19-.47V1.81s2.85,0,2.85,0v3.91Z"/>
  <path class="cls-1" d="M165.24,13.07c0,1-.25,1.92-.74,2.73-.48.83-1.14,1.49-1.97,1.97-.82.49-1.73.74-2.73.74h-.52c-.93,0-1.79-.21-2.59-.62s-1.46-.98-2-1.69c-.53-.72-.87-1.54-1.03-2.47-.06-.36-.1-.74-.1-1.11v-6.61h4.62c.67,0,1.27.16,1.81.48.55.32.98.76,1.29,1.29.33.55.49,1.14.49,1.81s-.17,1.26-.49,1.8c-.32.55-.75.98-1.29,1.3-.55.32-1.14.48-1.81.48h-1.77c.13.73.47,1.32,1.02,1.78s1.18.69,1.9.69h.47c.71,0,1.33-.25,1.84-.76.5-.51.76-1.13.76-1.84h2.85ZM156.41,10.33h1.77c.21,0,.39-.07.53-.22.14-.14.22-.32.22-.52s-.08-.38-.22-.53c-.14-.14-.32-.22-.53-.22h-1.77v1.49ZM163.79,9.7l1.4,1.4-1.4,1.4-1.4-1.4,1.4-1.4Z"/>
  <path class="cls-1" d="M172.9,6.28c.69.4,1.24.96,1.65,1.64.4.69.62,1.46.62,2.29v4.21h-2.85v-4.21c0-.47-.17-.87-.5-1.2s-.74-.5-1.21-.5-.87.17-1.2.5-.5.74-.5,1.2v4.21h-2.85v-4.21c0-.84.2-1.6.62-2.29.4-.69.96-1.24,1.64-1.64.69-.41,1.46-.62,2.29-.62s1.61.2,2.29.62ZM170.61,4.57l-1.71-1.71,1.71-1.71,1.71,1.71-1.71,1.71Z"/>
  <path class="cls-1" d="M182.06,11.8h2.85v2.56c0,.76-.18,1.46-.56,2.08-.37.63-.87,1.13-1.5,1.5-.62.38-1.32.56-2.08.56s-1.45-.18-2.07-.55c-.62-.37-1.12-.86-1.49-1.48-.38-.61-.57-1.3-.59-2.06V4.57c0-.63.16-1.2.49-1.73.33-.52.78-.92,1.35-1.2l1-.47v5.2h2.15v2.85h-2.15v5.14c0,.36.12.67.38.92s.56.38.92.38.67-.12.92-.38.38-.56.38-.92v-2.56Z"/>
</svg>