<?xml version="1.0" encoding="UTF-8"?>
<svg id="Layer_1" data-name="Layer 1" xmlns="http://www.w3.org/2000/svg" version="1.1" viewBox="0 0 20 185">
  <defs>
    <style>
      .cls-1 {
        fill: #fff;
        stroke-width: 0px;
      }
    </style>
  </defs>
  <path class="cls-1" d="M14.5,5.86v.47c0,.23,0,.4,0,.49.02.79.14,1.52.38,2.17.23.66.49,1.23.78,1.72H6.06v-6.12c0-.77.19-1.49.57-2.12.38-.64.89-1.14,1.52-1.53.64-.38,1.35-.56,2.12-.56s1.49.18,2.12.56c.64.39,1.15.89,1.53,1.53.38.63.56,1.35.56,2.12v.95c0,.06,0,.17,0,.32ZM11.65,7.83v-3.27c0-.38-.14-.69-.4-.97-.26-.26-.59-.4-.97-.4s-.69.13-.97.4c-.26.27-.4.59-.4.97v3.27h2.73Z"/>
  <path class="cls-1" d="M14.21,18.96c-.4.69-.96,1.24-1.64,1.65-.69.4-1.46.62-2.29.62h-4.21v-2.85h4.21c.47,0,.87-.17,1.2-.5s.5-.74.5-1.21-.17-.87-.5-1.2-.74-.5-1.2-.5h-4.21v-2.85h4.21c.84,0,1.6.2,2.29.62.69.4,1.24.96,1.64,1.64.41.69.62,1.46.62,2.29s-.2,1.61-.62,2.29ZM15.93,16.67l1.71-1.71,1.71,1.71-1.71,1.71-1.71-1.71Z"/>
  <path class="cls-1" d="M7.43,38.25c-1,0-1.92-.25-2.73-.74-.83-.48-1.49-1.14-1.97-1.97-.49-.82-.74-1.73-.74-2.73v-.52c0-.93.21-1.79.62-2.59s.98-1.46,1.69-2c.72-.53,1.54-.87,2.47-1.03.36-.06.74-.1,1.11-.1h6.61v4.62c0,.67-.16,1.27-.48,1.81-.32.55-.76.98-1.29,1.29-.55.33-1.14.49-1.81.49s-1.26-.17-1.8-.49c-.55-.32-.98-.75-1.3-1.29-.32-.55-.48-1.14-.48-1.81v-1.77c-.73.13-1.32.47-1.78,1.02s-.69,1.18-.69,1.9v.47c0,.71.25,1.33.76,1.84.51.5,1.13.76,1.84.76v2.85ZM10.16,29.42v1.77c0,.21.07.39.22.53.14.14.32.22.52.22s.38-.08.53-.22c.14-.14.22-.32.22-.53v-1.77h-1.49ZM10.79,36.8l-1.4,1.4-1.4-1.4,1.4-1.4,1.4,1.4Z"/>
  <path class="cls-1" d="M14.15,50.46l-3.91-3.91-3.91,3.91-.22-1.2c-.11-.69-.02-1.42.29-2.19.31-.77.78-1.49,1.44-2.15l.39-.4-.39-.39c-.66-.66-1.13-1.37-1.44-2.15-.31-.76-.4-1.49-.29-2.19l.22-1.2,3.91,3.91,3.91-3.91.21,1.2c.11.69.02,1.42-.28,2.19-.31.77-.79,1.49-1.44,2.15l-.39.39.39.4c.65.66,1.13,1.37,1.44,2.15.3.76.4,1.49.28,2.19l-.21,1.2ZM5.65,44.46l-1.4,1.4-1.4-1.4,1.4-1.4,1.4,1.4Z"/>
  <path class="cls-1" d="M14.49,60.7h-4.62c-.7,0-1.34-.17-1.92-.51-.57-.34-1.03-.8-1.37-1.38-.34-.57-.52-1.21-.52-1.92v-3.23h-1.43c-.62,0-1.2-.17-1.72-.5-.53-.33-.92-.78-1.2-1.35l-.48-1h9.86c.62,0,1.2.16,1.72.49.52.33.92.78,1.2,1.35l.47,1v7.03ZM11.64,57.85v-4.18h-2.73v2.81c0,.38.14.7.4.97s.59.4.98.4h1.35Z"/>
  <path class="cls-1" d="M17.65,62.64c.52.33.92.78,1.2,1.35l.47.99h-9.85c-.62,0-1.2-.16-1.72-.49-.53-.33-.92-.78-1.2-1.35l-.48-.99h9.85c.63,0,1.2.16,1.73.49Z"/>
  <path class="cls-1" d="M10.31,74.97c-.24.14-.49.21-.75.21h-.04c-.94,0-1.76-.47-2.47-1.41-.66-.97-.99-2.07-.99-3.32v-.11c.04-1.27.38-2.36,1.04-3.26.71-.91,1.53-1.36,2.46-1.36.25,0,.51.07.75.21l4.17,2.4c.32.18.57.47.76.85s.28.8.28,1.27-.1.88-.28,1.27c-.18.38-.44.66-.76.85l-4.17,2.4ZM5.65,69.04l-1.4,1.4-1.4-1.4,1.4-1.4,1.4,1.4ZM8.8,71.56c.21.28.46.43.75.43.21,0,.41-.06.61-.17l2.37-1.37-2.37-1.37c-.19-.11-.4-.17-.61-.17h-.02c-.27,0-.52.14-.74.43-.22.32-.33.7-.33,1.15.02.42.13.77.33,1.06ZM5.65,71.84l-1.4,1.4-1.4-1.4,1.4-1.4,1.4,1.4Z"/>
  <path class="cls-1" d="M15.57,79.42c.54.32.97.76,1.29,1.3s.48,1.15.48,1.8v4.5h-2.85v-4.54c0-.2-.07-.36-.21-.5-.13-.14-.3-.2-.51-.21-.19,0-.36.09-.49.23-.13.13-.2.31-.2.5v1.01c0,.48-.09.93-.27,1.36-.18.42-.43.79-.76,1.12-.65.65-1.47.99-2.45,1.03-.65,0-1.25-.17-1.78-.48-.54-.32-.96-.75-1.27-1.28-.33-.55-.48-1.13-.48-1.78v-8.76l.8.39c.63.31,1.13.76,1.5,1.34.36.58.55,1.22.55,1.92v5.16c0,.18.07.33.19.47.13.12.28.18.47.18s.33-.06.47-.18c.13-.13.19-.29.19-.47v-1.03c0-.49.09-.96.27-1.39.18-.42.44-.8.76-1.13.67-.67,1.49-1.01,2.49-1.05.67,0,1.27.17,1.81.49ZM5.65,79l-1.4,1.4-1.4-1.4,1.4-1.4,1.4,1.4ZM5.65,81.8l-1.4,1.4-1.4-1.4,1.4-1.4,1.4,1.4Z"/>
  <path class="cls-1" d="M15.92,89.51l1.71-1.71,1.71,1.71-1.71,1.71-1.71-1.71ZM7.75,90.44c-.53-.33-.92-.78-1.2-1.35l-.48-.99h6.11c.62,0,1.2.16,1.72.49.53.33.93.78,1.2,1.35l.48.99h-6.11c-.62,0-1.2-.16-1.72-.49Z"/>
  <path class="cls-1" d="M14.49,103.13v3.19l-7.11-4.98c-.41-.29-.74-.66-.97-1.1s-.34-.91-.34-1.41.11-.97.34-1.41.55-.81.97-1.1l7.11-4.98v3.19l-5.37,3.75c-.19.16-.28.33-.28.54s.09.38.28.54l5.37,3.75ZM14.49,98.84l1.71-1.71,1.71,1.71-1.71,1.71-1.71-1.71Z"/>
  <path class="cls-1" d="M7.43,118.29c-1,0-1.92-.25-2.73-.74-.83-.48-1.49-1.14-1.97-1.97-.49-.82-.74-1.73-.74-2.73v-.52c0-.93.21-1.79.62-2.59s.98-1.46,1.69-2c.72-.53,1.54-.87,2.47-1.03.36-.06.74-.1,1.11-.1h6.61v4.62c0,.67-.16,1.27-.48,1.81-.32.55-.76.98-1.29,1.29-.55.33-1.14.49-1.81.49s-1.26-.17-1.8-.49c-.55-.32-.98-.75-1.3-1.29-.32-.55-.48-1.14-.48-1.81v-1.77c-.73.13-1.32.47-1.78,1.02s-.69,1.18-.69,1.9v.47c0,.71.25,1.33.76,1.84.51.5,1.13.76,1.84.76v2.85ZM10.16,109.46v1.77c0,.21.07.39.22.53.14.14.32.22.52.22s.38-.08.53-.22c.14-.14.22-.32.22-.53v-1.77h-1.49ZM10.79,116.84l-1.4,1.4-1.4-1.4,1.4-1.4,1.4,1.4Z"/>
  <path class="cls-1" d="M8.69,129.23v2.85h-2.56c-.76,0-1.46-.18-2.08-.56-.63-.37-1.13-.87-1.5-1.5-.38-.62-.56-1.32-.56-2.08s.18-1.45.55-2.07c.37-.62.86-1.12,1.48-1.49.61-.38,1.3-.57,2.06-.59h9.85c.63,0,1.2.16,1.73.49.52.33.92.78,1.2,1.35l.47,1h-5.2v2.15h-2.85v-2.15h-5.14c-.36,0-.67.12-.92.38s-.38.56-.38.92.12.67.38.92.56.38.92.38h2.56Z"/>
  <path class="cls-1" d="M10.31,141.61c-.24.14-.49.21-.75.21h-.04c-.94,0-1.76-.47-2.47-1.41-.66-.97-.99-2.07-.99-3.32v-.11c.04-1.27.38-2.36,1.04-3.26.71-.91,1.53-1.36,2.46-1.36.25,0,.51.07.75.21l4.17,2.4c.32.18.57.47.76.85s.28.8.28,1.27-.1.88-.28,1.27c-.18.38-.44.66-.76.85l-4.17,2.4ZM5.65,135.69l-1.4,1.4-1.4-1.4,1.4-1.4,1.4,1.4ZM8.8,138.2c.21.28.46.43.75.43.21,0,.41-.06.61-.17l2.37-1.37-2.37-1.37c-.19-.11-.4-.17-.61-.17h-.02c-.27,0-.52.14-.74.43-.22.32-.33.7-.33,1.15.02.42.13.77.33,1.06ZM5.65,138.48l-1.4,1.4-1.4-1.4,1.4-1.4,1.4,1.4Z"/>
  <path class="cls-1" d="M14.77,152.27c-.78,0-1.49-.23-2.1-.69-.62.47-1.32.69-2.11.69h-4.49v-2.85h4.49c.19,0,.35-.06.48-.19.12-.13.19-.29.2-.48v-3.29h-4.47c-.62,0-1.2-.17-1.72-.49-.53-.33-.93-.78-1.21-1.35l-.47-1h12.58c.62,0,1.2.17,1.72.49.53.33.93.78,1.21,1.35l.47,1h-5.26v3.29c0,.18.07.35.2.48s.29.19.47.19h3.91s0,2.85,0,2.85h-3.91Z"/>
  <path class="cls-1" d="M7.43,165.53c-1,0-1.92-.25-2.73-.74-.83-.48-1.49-1.14-1.97-1.97-.49-.82-.74-1.73-.74-2.73v-.52c0-.93.21-1.79.62-2.59s.98-1.46,1.69-2c.72-.53,1.54-.87,2.47-1.03.36-.06.74-.1,1.11-.1h6.61v4.62c0,.67-.16,1.27-.48,1.81-.32.55-.76.98-1.29,1.29-.55.33-1.14.49-1.81.49s-1.26-.17-1.8-.49c-.55-.32-.98-.75-1.3-1.29-.32-.55-.48-1.14-.48-1.81v-1.77c-.73.13-1.32.47-1.78,1.02s-.69,1.18-.69,1.9v.47c0,.71.25,1.33.76,1.84.51.5,1.13.76,1.84.76v2.85ZM10.16,156.71v1.77c0,.21.07.39.22.53.14.14.32.22.52.22s.38-.08.53-.22c.14-.14.22-.32.22-.53v-1.77h-1.49ZM10.79,164.08l-1.4,1.4-1.4-1.4,1.4-1.4,1.4,1.4Z"/>
  <path class="cls-1" d="M14.21,173.2c-.4.69-.96,1.24-1.64,1.65-.69.4-1.46.62-2.29.62h-4.21v-2.85h4.21c.47,0,.87-.17,1.2-.5s.5-.74.5-1.21-.17-.87-.5-1.2-.74-.5-1.2-.5h-4.21v-2.85h4.21c.84,0,1.6.2,2.29.62.69.4,1.24.96,1.64,1.64.41.69.62,1.46.62,2.29s-.2,1.61-.62,2.29ZM15.93,170.9l1.71-1.71,1.71,1.71-1.71,1.71-1.71-1.71Z"/>
</svg>