<?xml version="1.0" encoding="UTF-8"?>
<svg id="Layer_1" data-name="Layer 1" xmlns="http://www.w3.org/2000/svg" version="1.1" viewBox="0 0 150 67">
  <defs>
    <style>
      .cls-1 {
        fill: #000;
        stroke-width: 0px;
      }
    </style>
  </defs>
  <path class="cls-1" d="M.85,42.91c0-.09.07-.21.22-.36s.27-.22.36-.22c.39.86.82,1.77,1.29,2.72.48.95,1.03,1.83,1.67,2.63.64.8,1.38,1.46,2.21,1.98.83.52,1.78.78,2.85.78.95,0,1.78-.25,2.5-.76.71-.51,1.2-1.25,1.47-2.23.18-2.44.16-4.86-.04-7.27-.21-2.41-.48-4.81-.8-7.2-.33-2.39-.65-4.79-.98-7.18-.33-2.39-.51-4.81-.53-7.25,0-.15,0-.33-.02-.56-.02-.22,0-.44.07-.65.06-.21.15-.39.27-.54.12-.15.33-.22.62-.22.33,0,.61.21.85.62.74,4.34,1.41,8.76,2.01,13.25.59,4.49.89,8.94.89,13.34,0,1.19-.08,2.29-.25,3.3-.16,1.01-.48,1.88-.96,2.61-.48.73-1.13,1.31-1.96,1.74-.83.43-1.9.65-3.21.65-1.13,0-2.21-.26-3.23-.78-1.03-.52-1.93-1.22-2.72-2.1-.79-.88-1.41-1.87-1.87-2.97-.46-1.1-.69-2.22-.69-3.35Z"/>
  <path class="cls-1" d="M19.54,15.88c0-.24.08-.41.25-.51.16-.1.36-.16.58-.18.22-.01.46,0,.71.02.25.03.47.04.65.04.15.36.27,1.06.38,2.12.1,1.06.21,2.33.31,3.84.1,1.5.18,3.16.22,4.97.04,1.81.09,3.65.13,5.51.04,1.86.07,3.68.09,5.46.01,1.78.03,3.41.04,4.88.01,1.47.02,2.73.02,3.77v2.01c-.03.59-.16.94-.38,1.05s-.74.04-1.54-.2c-.09-.03-.16-.48-.22-1.34-.06-.86-.1-2-.13-3.41-.03-1.41-.06-3.03-.09-4.86-.03-1.83-.06-3.71-.09-5.64-.03-1.93-.07-3.87-.11-5.8-.04-1.93-.1-3.69-.16-5.29-.06-1.59-.14-2.96-.25-4.1-.1-1.14-.25-1.93-.42-2.34Z"/>
  <path class="cls-1" d="M38.76,33.77c-.33.24-.9.59-1.72,1.05-.82.46-1.69.96-2.61,1.49-.92.53-1.8,1.05-2.63,1.54-.83.49-1.41.85-1.74,1.09-.65.51-1.1,1.09-1.34,1.74-.24.65-.36,1.36-.36,2.12s.07,1.55.22,2.36c.15.82.25,1.64.31,2.48,0,.42-.13.8-.4,1.16-.27.36-.61.53-1.03.53-.18,0-.37-.05-.58-.16-.21-.1-.31-.26-.31-.47l-1.03-28.59c0-.18.07-.42.2-.71.13-.3.25-.46.33-.49.09,0,.22.02.38.04.16.03.33.08.51.16.18.07.35.15.51.22.16.07.27.14.33.2.12,1.19.19,2.56.22,4.1.03,1.55.07,3.11.11,4.68.04,1.58.12,3.1.22,4.57.1,1.47.29,2.71.56,3.72,1.28-.54,2.48-1.04,3.61-1.52,1.13-.48,2.11-1.03,2.94-1.65.83-.62,1.49-1.39,1.96-2.3.48-.91.7-2.04.67-3.41,0-.74-.02-1.4-.04-1.96-.03-.56-.09-1.12-.18-1.67-.09-.55-.22-1.14-.38-1.78-.16-.64-.36-1.38-.6-2.21-.06-.54.03-.88.27-1.03.24-.15.52-.22.85-.22.39,0,.68.09.89.27.21.18.38.42.51.71s.22.62.25.96c.03.34.06.66.09.96.06.48.13,1.19.22,2.14.09.95.19,2.03.29,3.23.1,1.2.22,2.48.36,3.81s.26,2.6.38,3.79c.12,1.19.22,2.26.29,3.21.07.95.14,1.67.2,2.14.09,1.13.21,2.25.36,3.35.15,1.1.22,2.23.22,3.39v.71c0,.24-.02.47-.07.69-.04.22-.15.42-.31.58s-.42.29-.78.38c-.54-.39-.85-.82-.94-1.29-.09-.48-.16-1-.22-1.56-.03-.33-.06-.83-.09-1.49-.03-.67-.08-1.41-.16-2.23-.07-.82-.15-1.68-.22-2.59-.07-.91-.15-1.77-.22-2.59-.07-.82-.14-1.55-.2-2.21-.06-.65-.1-1.14-.13-1.47Z"/>
  <path class="cls-1" d="M44.78,48.04c.09-.42.16-.95.22-1.6s.14-1.52.25-2.59c.1-1.07.22-2.39.36-3.97s.32-3.49.56-5.75c.24-2.26.51-4.91.82-7.96.31-3.05.72-6.59,1.23-10.64.03-.3.17-.48.42-.54.25-.06.48-.09.69-.09.33,0,.59.12.8.36.21.24.39.51.56.8.16.3.32.61.47.94.15.33.31.6.49.8.3.68.6,1.47.91,2.36.31.89.65,1.84,1,2.85.36,1.01.71,2.03,1.07,3.06.36,1.03.71,2.02,1.07,2.99.36.97.69,1.86,1,2.68.31.82.6,1.49.87,2.03.33-.03.79-.16,1.38-.38.59-.22,1.23-.44,1.92-.65.68-.21,1.35-.37,2.01-.49.65-.12,1.2-.13,1.65-.02.45.1.74.36.87.78s.02,1.07-.33,1.96c-.21,0-.4-.04-.58-.11-.18-.07-.36-.15-.53-.22-.18-.07-.36-.15-.56-.22-.19-.07-.41-.11-.65-.11-.15,0-.48.08-1,.25-.52.16-1.08.34-1.67.53-.6.19-1.12.39-1.56.58-.45.19-.67.33-.67.42l3.08,12.09-1.16,1.69c-.51-.86-.93-1.85-1.27-2.97-.34-1.11-.66-2.23-.96-3.35s-.6-2.16-.91-3.12c-.31-.97-.71-1.78-1.18-2.43-.62.3-1.37.55-2.23.76-.86.21-1.7.47-2.5.78-.8.31-1.49.73-2.07,1.25s-.93,1.23-1.05,2.12c-.06.36-.11.83-.16,1.43-.04.6-.1,1.16-.16,1.69-.09.66-.16,1.32-.22,2.01h-2.27ZM49.91,21.77l-.09.76c-.03.51-.07,1.09-.13,1.76-.06.67-.13,1.35-.2,2.05-.07.7-.13,1.29-.16,1.76-.15,1.67-.31,3.31-.47,4.93-.16,1.62-.25,3.28-.25,4.97.56,0,1.17-.07,1.81-.22.64-.15,1.26-.35,1.85-.6.59-.25,1.14-.56,1.63-.94.49-.37.87-.8,1.14-1.27-.24-1.04-.5-2.12-.78-3.23-.28-1.12-.59-2.24-.91-3.39-.33-1.14-.68-2.27-1.07-3.37-.39-1.1-.8-2.17-1.25-3.21-.03-.03-.13-.1-.31-.2-.18-.1-.45-.04-.8.2Z"/>
  <path class="cls-1" d="M68.64,48.31c0-.59.37-1.36,1.11-2.3.74-.94,1.67-2,2.77-3.19,1.1-1.19,2.3-2.48,3.61-3.88,1.31-1.4,2.51-2.85,3.61-4.35,1.1-1.5,2.02-3.03,2.76-4.59s1.11-3.1,1.11-4.62c0-.8-.22-1.49-.67-2.07s-1.02-1.08-1.72-1.49c-.7-.42-1.49-.74-2.36-.98-.88-.24-1.76-.42-2.65-.56-.89-.13-1.74-.22-2.54-.27-.8-.04-1.49-.07-2.05-.07-.15,0-.34,0-.58.02-.24.02-.48.03-.74.04-.25.02-.48.04-.69.07-.21.03-.33.04-.36.04l-.58.53c0,.06,0,.31-.02.76-.02.45-.03.95-.04,1.52-.02.57-.02,1.15-.02,1.74v1.38c0,3,.11,5.98.33,8.94.22,2.96.33,5.94.33,8.94,0,.18,0,.37.02.58.01.21,0,.41-.02.6-.03.19-.11.36-.25.49s-.33.2-.6.2c-.18,0-.36-.04-.54-.13-.18-.09-.28-.24-.31-.45l-1.74-23.46c-.09.06-.25.14-.47.25-.22.1-.45.22-.69.33-.24.12-.47.25-.69.38-.22.13-.36.2-.42.2-.03,0-.08,0-.16.02-.07.02-.13.02-.16.02-.15,0-.32-.04-.51-.11-.19-.07-.29-.25-.29-.51,0-.45.1-.81.29-1.09.19-.28.45-.54.76-.78.31-.24.65-.48,1-.71.36-.24.69-.54,1-.91.31-.37.56-.84.76-1.4.19-.56.29-1.28.29-2.14.59,0,.97.1,1.11.31.15.21.24.45.27.74.03.28.07.57.11.85.04.28.26.48.65.6.83-.03,1.84-.03,3.01,0,1.17.03,2.41.13,3.7.29,1.29.16,2.57.41,3.84.74,1.26.33,2.39.79,3.39,1.38,1,.6,1.78,1.35,2.36,2.25s.84,2.01.78,3.32c-.39,2.29-1.12,4.49-2.21,6.6s-2.36,4.14-3.83,6.09c-1.47,1.95-3.06,3.81-4.77,5.6-1.71,1.78-3.41,3.49-5.11,5.13-.03,0-.07,0-.13.02s-.1.02-.13.02c-.27,0-.49-.09-.67-.27-.18-.18-.27-.4-.27-.67Z"/>
  <path class="cls-1" d="M89.12,15.88c0-.24.08-.41.24-.51.16-.1.36-.16.58-.18.22-.01.46,0,.71.02.25.03.47.04.65.04.15.36.27,1.06.38,2.12.1,1.06.21,2.33.31,3.84.1,1.5.18,3.16.22,4.97.04,1.81.09,3.65.13,5.51.04,1.86.07,3.68.09,5.46.01,1.78.03,3.41.04,4.88s.02,2.73.02,3.77v2.01c-.03.59-.16.94-.38,1.05-.22.1-.74.04-1.54-.2-.09-.03-.16-.48-.22-1.34-.06-.86-.1-2-.13-3.41-.03-1.41-.06-3.03-.09-4.86s-.06-3.71-.09-5.64c-.03-1.93-.07-3.87-.11-5.8-.04-1.93-.1-3.69-.16-5.29-.06-1.59-.14-2.96-.25-4.1s-.25-1.93-.42-2.34Z"/>
  <path class="cls-1" d="M94.38,42.91c0-.09.07-.21.22-.36.15-.15.27-.22.36-.22.39.86.82,1.77,1.29,2.72.48.95,1.03,1.83,1.67,2.63.64.8,1.38,1.46,2.21,1.98.83.52,1.78.78,2.85.78.95,0,1.78-.25,2.5-.76.71-.51,1.2-1.25,1.47-2.23.18-2.44.16-4.86-.04-7.27s-.48-4.81-.8-7.2c-.33-2.39-.65-4.79-.98-7.18-.33-2.39-.51-4.81-.53-7.25,0-.15,0-.33-.02-.56s0-.44.07-.65c.06-.21.15-.39.27-.54.12-.15.33-.22.62-.22.33,0,.61.21.85.62.74,4.34,1.41,8.76,2.01,13.25.59,4.49.89,8.94.89,13.34,0,1.19-.08,2.29-.25,3.3-.16,1.01-.48,1.88-.96,2.61s-1.13,1.31-1.96,1.74c-.83.43-1.9.65-3.21.65-1.13,0-2.21-.26-3.23-.78-1.03-.52-1.93-1.22-2.72-2.1s-1.41-1.87-1.87-2.97c-.46-1.1-.69-2.22-.69-3.35Z"/>
  <path class="cls-1" d="M111.42,39.65c.36-5.17,1.1-9.39,2.23-12.64,1.13-3.26,2.45-5.58,3.95-6.98,1.5-1.4,3.06-1.87,4.68-1.4,1.62.46,3.08,1.82,4.39,4.08.45,1.49.74,3.15.87,5s.1,3.71-.09,5.6c-.19,1.89-.54,3.74-1.03,5.55-.49,1.81-1.17,3.45-2.03,4.91-.86,1.46-1.89,2.68-3.08,3.68-1.19,1-2.56,1.6-4.1,1.81-1.1,0-2.02-.34-2.76-1.03-.74-.68-1.34-1.52-1.78-2.52-.45-1-.77-2.04-.96-3.12-.19-1.08-.29-2.06-.29-2.92ZM113.78,39.39c0,.74.04,1.52.11,2.32s.25,1.54.51,2.21.68,1.22,1.23,1.65c.55.43,1.29.65,2.21.65,1.04,0,1.99-.48,2.85-1.43.86-.95,1.6-2.18,2.23-3.7.62-1.52,1.12-3.2,1.49-5.04.37-1.84.59-3.65.67-5.42.07-1.77-.01-3.4-.27-4.88-.25-1.49-.69-2.61-1.32-3.37-.62-.76-1.45-1.06-2.48-.91-1.03.15-2.25.97-3.68,2.45-.42,1.22-.83,2.48-1.25,3.77-.42,1.29-.79,2.6-1.11,3.93-.33,1.32-.61,2.64-.85,3.95-.24,1.31-.36,2.59-.36,3.84Z"/>
  <path class="cls-1" d="M131.44,48.04c0-2.41.01-4.77.04-7.09.03-2.32.01-4.62-.04-6.91-.06-2.29-.18-4.59-.36-6.89-.18-2.3-.45-4.65-.8-7.02,0-.06-.04-.18-.11-.36-.08-.18-.14-.36-.2-.56-.06-.19-.12-.36-.18-.51-.06-.15-.09-.25-.09-.31,0-.15.05-.33.16-.53.1-.21.24-.41.4-.6.16-.19.35-.35.56-.47.21-.12.42-.16.62-.13.36.09.65.31.87.67.22.36.39.75.51,1.18.12.43.2.85.24,1.27.04.42.07.71.07.89.89-.48,1.9-.99,3.01-1.54,1.11-.55,2.26-1.06,3.43-1.52,1.17-.46,2.35-.85,3.52-1.16,1.17-.31,2.28-.47,3.32-.47,0,.27-.05.51-.16.71-.1.21-.31.39-.6.54l-12.53,6.29v1.74c.03.33.07.89.11,1.69.04.8.1,1.66.16,2.56.06.91.11,1.77.16,2.59.04.82.08,1.38.11,1.67l9.19-5.13.22-.27c.15-.18.34-.34.58-.49.24-.15.48-.23.74-.25.25-.01.5.14.74.47,0,.53-.27,1.06-.8,1.56-.53.51-1.2,1.01-2.01,1.52-.8.51-1.67,1-2.61,1.47-.94.48-1.81.94-2.61,1.38-.8.45-1.47.89-2.01,1.34-.53.45-.8.86-.8,1.25v8.61c.39.15.93.08,1.63-.2.7-.28,1.48-.68,2.34-1.18.86-.51,1.75-1.09,2.68-1.76.92-.67,1.82-1.3,2.7-1.9.88-.59,1.69-1.13,2.45-1.61.76-.48,1.39-.76,1.9-.85.3,0,.57.06.8.18.24.12.36.36.36.71s-.21.64-.62.85c-1.04.62-2.24,1.4-3.59,2.34-1.35.94-2.73,1.87-4.13,2.81-1.4.94-2.77,1.78-4.13,2.54-1.35.76-2.52,1.26-3.5,1.49-.39,0-.7-.03-.94-.09-.24-.06-.51-.24-.8-.53Z"/>
</svg>